<?xml version="1.0" standalone="no"?>
<!DOCTYPE svg PUBLIC "-//W3C//DTD SVG 20010904//EN"
 "http://www.w3.org/TR/2001/REC-SVG-20010904/DTD/svg10.dtd">
<svg version="1.0" xmlns="http://www.w3.org/2000/svg"
 width="2268.000000pt" height="2268.000000pt" viewBox="0 0 2268.000000 2268.000000"
 preserveAspectRatio="xMidYMid meet">

<g transform="translate(0.000000,2268.000000) scale(0.100000,-0.100000)"
fill="#000000" stroke="none">
<path d="M3040 14519 c-167 -27 -307 -168 -340 -339 -14 -72 -14 -5897 0
-5969 24 -130 115 -246 237 -304 l68 -32 7660 0 7660 0 67 32 c94 44 160 109
206 202 l37 75 3 2990 c2 2955 2 2992 -18 3056 -37 123 -128 219 -260 273
l-55 22 -7605 1 c-4432 1 -7628 -2 -7660 -7z m15263 -44 c121 -31 210 -103
263 -210 l29 -60 0 -3005 0 -3005 -28 -60 c-46 -99 -131 -175 -232 -208 -47
-16 -598 -17 -7685 -15 l-7635 3 -56 26 c-107 50 -185 144 -214 255 -13 53
-15 381 -13 3025 l3 2964 23 57 c27 67 105 157 166 193 23 13 66 31 96 39 48
13 996 15 7640 15 6701 1 7592 -1 7643 -14z"/>
<path d="M3043 14386 c-87 -28 -171 -113 -193 -196 -7 -25 -9 -1046 -8 -3011
l3 -2974 29 -53 c35 -62 87 -107 156 -133 49 -19 218 -19 7633 -19 6900 0
7588 1 7637 16 41 12 67 29 111 73 99 99 89 -238 87 3131 l-3 2965 -27 50
c-31 60 -77 104 -138 136 l-45 24 -7600 2 c-6261 1 -7607 -1 -7642 -11z
m15273 -53 c53 -28 107 -89 128 -144 15 -41 16 -264 14 -3004 -3 -2918 -3
-2961 -23 -3000 -27 -56 -88 -111 -142 -129 -42 -15 -741 -16 -7622 -16 -5188
0 -7588 3 -7613 10 -57 16 -119 69 -150 129 l-28 53 0 2967 0 2967 26 52 c29
59 80 105 139 126 35 13 1060 14 7635 13 l7595 -2 41 -22z"/>
<path d="M16020 13863 c-6 -21 -17 -69 -24 -108 l-12 -70 -376 -3 c-313 -2
-378 -5 -388 -17 -6 -8 -9 -19 -5 -25 4 -7 131 -10 381 -10 285 0 374 -3 374
-12 0 -7 -72 -470 -160 -1030 -88 -561 -160 -1025 -160 -1033 0 -8 9 -15 20
-15 25 0 32 27 75 283 l34 202 42 38 c84 75 227 125 437 152 128 17 202 19
202 6 0 -15 -90 -575 -95 -588 -3 -9 -44 -13 -137 -15 -125 -3 -133 -4 -133
-23 0 -19 8 -20 128 -23 109 -2 127 -5 127 -19 0 -33 -183 -1068 -190 -1076
-4 -5 -41 0 -81 11 -182 50 -302 127 -435 280 -42 48 -79 88 -82 89 -9 3 -142
-199 -149 -225 -9 -34 222 -223 315 -257 33 -12 8 -14 -224 -14 -206 -1 -264
-4 -279 -15 -16 -11 -17 -17 -7 -29 11 -12 79 -15 457 -19 244 -2 447 -6 450
-10 3 -3 -4 -61 -15 -128 -12 -68 -19 -129 -16 -137 3 -7 14 -13 24 -13 23 0
34 35 57 170 9 52 21 100 26 105 7 6 308 12 844 15 458 3 837 9 841 13 5 4 3
16 -2 25 -10 16 -63 17 -660 22 -537 4 -642 7 -608 17 52 16 154 70 272 145
51 32 95 58 98 58 3 0 -15 -24 -40 -52 -47 -53 -55 -83 -24 -83 21 0 808 874
808 897 0 13 -8 18 -25 18 -14 0 -25 -4 -25 -8 0 -12 -80 -102 -208 -237
l-104 -110 51 102 c85 171 131 316 131 417 l0 46 114 0 c82 0 117 4 125 13 22
28 -9 37 -126 37 l-113 0 0 63 c0 82 -33 216 -71 287 -68 129 -197 265 -337
357 -128 84 -329 143 -491 143 -81 0 -83 1 -78 23 3 12 15 84 28 159 18 112
20 140 9 153 -10 12 -38 21 -41 13 0 -2 -13 -77 -27 -167 l-27 -163 -135 -28
c-119 -24 -350 -80 -404 -96 -18 -6 -19 -2 -13 102 4 60 19 172 33 249 14 77
34 203 44 280 11 77 26 172 35 211 27 122 -70 109 809 109 l766 1 0 -117 c0
-84 4 -120 13 -128 33 -26 37 7 37 286 l0 273 89 0 c91 0 113 9 91 35 -9 11
-35 15 -96 15 l-84 0 0 49 c0 28 -6 53 -13 60 -22 17 -37 -8 -37 -61 l0 -48
-805 0 c-443 0 -805 2 -805 4 0 2 7 40 15 83 19 100 19 110 -5 123 -17 9 -20
6 -30 -27z m1630 -252 c0 -17 -10 -20 -72 -25 -122 -9 -1305 -38 -1428 -34
l-115 3 -3 38 -3 37 810 0 c792 0 811 0 811 -19z m-1029 -1406 c97 -25 286
-110 347 -156 77 -58 153 -137 203 -210 44 -65 99 -178 99 -204 0 -13 -51 -15
-426 -15 -400 0 -425 1 -420 18 2 9 25 139 51 287 26 149 48 276 50 283 6 16
25 15 96 -3z m664 -820 c0 -176 -1 -182 -31 -267 -81 -227 -243 -424 -437
-532 -131 -73 -348 -126 -519 -126 -43 0 -78 1 -78 3 0 1 43 247 95 547 52
300 95 548 95 552 0 5 197 7 438 6 l437 -3 0 -180z"/>
<path d="M13767 13883 c-4 -3 -7 -53 -7 -110 l0 -103 -671 -2 c-632 -3 -672
-4 -683 -21 -8 -14 -8 -20 4 -27 9 -6 275 -10 683 -10 636 0 667 -1 667 -18 0
-15 -16 -21 -91 -36 -50 -9 -128 -30 -172 -47 l-81 -29 41 42 c40 42 46 68 17
68 -8 0 -156 -109 -329 -241 -262 -201 -315 -245 -315 -266 0 -21 3 -23 23
-17 27 8 91 52 163 110 30 24 56 44 59 44 2 0 -13 -24 -36 -52 -88 -116 -159
-311 -159 -440 l0 -57 -71 -3 c-57 -2 -74 -7 -83 -21 -18 -30 17 -47 96 -47
68 0 68 0 68 -28 0 -44 28 -130 66 -203 54 -104 119 -168 231 -232 122 -69
147 -91 133 -117 -5 -10 -48 -39 -94 -64 -229 -125 -406 -307 -482 -494 -34
-85 -54 -167 -61 -254 l-6 -78 -97 0 c-75 0 -100 -4 -110 -15 -10 -12 -10 -18
0 -30 9 -11 35 -15 109 -15 l97 0 17 -91 c45 -238 209 -483 397 -591 l64 -38
-374 -2 c-367 -3 -375 -3 -375 -23 0 -20 8 -20 430 -25 398 -5 438 -7 535 -28
120 -26 190 -31 307 -18 l83 8 2 -228 c3 -211 4 -229 21 -232 44 -9 47 7 47
249 l0 229 25 5 c14 3 36 7 50 10 30 6 32 -1 5 -23 -19 -15 -19 -19 -6 -37 14
-20 14 -20 43 1 16 12 47 31 70 43 41 21 52 21 542 21 336 0 502 3 506 10 4 6
1 17 -5 25 -10 13 -86 15 -479 17 l-466 3 185 124 c244 164 427 291 523 364
64 48 76 61 66 73 -6 8 -16 14 -21 14 -5 0 -58 -33 -116 -73 -59 -41 -113 -77
-120 -81 -7 -4 8 23 34 61 90 131 138 267 150 433 6 84 8 90 29 90 12 0 28 7
35 15 17 21 -4 45 -40 45 -27 0 -29 4 -44 73 -24 106 -56 175 -119 260 -113
150 -236 243 -389 296 -156 55 -188 71 -188 95 0 15 14 28 47 46 112 59 249
177 318 275 98 138 139 264 139 428 l0 107 43 0 c30 0 45 5 49 15 11 26 -16
45 -63 45 -33 0 -45 4 -49 18 -57 188 -179 337 -339 414 -95 45 -237 78 -342
78 -66 0 -73 2 -73 20 0 20 7 20 609 20 547 0 610 2 622 16 11 14 10 18 -6 30
-16 12 -122 14 -622 14 l-603 0 0 98 c0 63 -4 102 -12 110 -13 13 -41 16 -51
5z m-7 -823 l0 -390 -290 0 c-276 0 -290 1 -300 19 -5 11 -10 85 -10 168 0
137 2 154 29 230 16 45 43 104 60 132 91 142 255 228 439 230 l72 1 0 -390z
m146 370 c26 0 220 -139 277 -198 52 -56 96 -128 97 -159 0 -10 -23 -13 -83
-13 -94 0 -132 -15 -108 -44 11 -13 34 -16 112 -16 99 0 100 0 110 -27 19 -51
23 -241 6 -329 -43 -224 -127 -340 -317 -432 -58 -29 -120 -55 -137 -58 l-33
-6 0 226 0 226 33 0 c81 0 89 62 8 68 l-41 3 0 386 0 386 31 -7 c17 -3 37 -6
45 -6z m-146 -1055 c0 -124 -4 -225 -8 -225 -24 0 -167 42 -239 69 -75 29 -89
39 -165 120 -77 80 -130 164 -153 239 l-6 22 285 0 286 0 0 -225z m-32 -431
l32 -6 0 -404 0 -404 -391 0 -391 0 4 148 c4 123 9 160 32 227 64 195 189 326
403 421 77 35 80 35 178 29 55 -3 115 -8 133 -11z m248 -40 c94 -27 234 -88
285 -125 82 -58 209 -240 224 -321 l7 -38 -135 0 c-107 0 -137 -3 -147 -15 -7
-8 -10 -22 -6 -30 4 -12 30 -15 150 -15 l145 0 7 -37 c4 -20 4 -102 1 -182 -9
-232 -53 -367 -154 -472 -134 -141 -278 -214 -465 -235 l-58 -6 0 321 0 321
199 0 c164 0 201 3 211 15 10 12 10 18 0 30 -10 12 -47 15 -211 15 l-199 0 0
400 0 400 29 0 c16 0 69 -12 117 -26z m-216 -1154 l0 -320 -22 0 c-50 1 -177
29 -241 54 -86 33 -171 82 -269 158 -84 65 -128 119 -176 213 -27 54 -72 183
-72 206 0 5 167 9 390 9 l390 0 0 -320z"/>
<path d="M10962 13848 c-7 -7 -12 -44 -12 -95 l0 -83 -689 0 c-559 0 -691 -2
-700 -13 -29 -36 -3 -37 701 -37 l688 0 0 -23 c0 -21 -7 -24 -79 -34 -189 -28
-466 -158 -589 -277 -208 -199 -369 -459 -392 -630 -6 -49 -8 -31 -9 95 -1
166 -8 194 -43 162 -16 -15 -18 -36 -18 -235 l0 -218 -99 0 c-75 0 -101 -4
-111 -15 -10 -12 -10 -18 0 -30 10 -11 36 -15 111 -15 l99 0 0 -239 c0 -207 2
-242 16 -256 12 -12 19 -13 30 -4 10 8 14 38 14 112 0 55 2 98 5 96 2 -3 15
-42 28 -86 34 -116 94 -212 201 -319 74 -73 108 -99 176 -132 121 -60 219 -83
376 -89 240 -10 418 49 569 188 39 36 75 99 57 99 -4 0 -46 -13 -93 -29 -133
-45 -196 -55 -327 -48 -183 9 -340 56 -456 136 -115 79 -277 362 -293 510 l-6
61 417 0 416 0 0 -169 c0 -138 3 -171 15 -181 12 -10 18 -10 30 0 12 10 15 43
15 181 l0 169 84 0 c62 0 87 4 96 15 10 12 10 18 0 30 -9 11 -34 15 -96 15
l-84 0 0 460 0 460 43 -6 c53 -9 166 -48 238 -85 72 -36 215 -186 288 -303
182 -292 221 -614 130 -1071 -39 -196 -86 -334 -174 -513 -207 -420 -481 -695
-851 -851 -252 -106 -481 -170 -666 -187 l-78 -7 0 131 c0 142 -4 162 -29 162
-36 0 -41 -20 -41 -162 l0 -138 -150 0 c-125 0 -152 -3 -156 -15 -4 -8 -1 -22
6 -30 10 -12 41 -15 156 -15 l143 0 3 -81 c3 -86 16 -110 52 -96 13 5 16 22
16 91 l0 85 38 -2 c20 -1 541 0 1158 1 939 2 1123 4 1139 16 16 12 17 16 6 30
-12 14 -101 16 -930 17 -644 1 -906 4 -881 11 319 94 550 210 810 408 146 111
387 398 520 619 166 277 246 535 257 836 12 338 -46 651 -166 894 -56 113 -88
152 -194 235 -113 87 -225 149 -337 187 -80 27 -115 32 -222 37 -116 4 -128 7
-128 23 0 18 23 19 629 19 560 0 630 2 642 16 10 13 10 17 -2 25 -8 5 -283 9
-641 9 l-628 0 0 83 c0 75 -9 107 -30 107 -3 0 -11 -5 -18 -12z m-28 -464 c14
-5 16 -56 16 -465 l0 -459 -420 0 -420 0 0 98 c1 191 49 348 155 507 91 137
216 232 369 281 102 32 263 52 300 38z"/>
<path d="M8877 13833 c-4 -3 -7 -42 -7 -85 l0 -78 -607 -2 c-600 -3 -608 -3
-608 -23 0 -20 8 -20 608 -23 l608 -2 -3 -36 c-3 -42 23 -29 -358 -175 -281
-109 -588 -211 -695 -234 -90 -18 -109 -27 -130 -59 -18 -27 -31 -111 -18
-119 5 -3 216 62 467 144 252 83 462 147 467 142 27 -28 48 -1332 30 -1933
-18 -611 -23 -679 -56 -745 -50 -103 -137 -145 -315 -152 -136 -6 -154 -13
-146 -54 l6 -29 -256 0 c-218 0 -255 -2 -260 -15 -4 -8 -1 -22 6 -30 11 -13
96 -15 636 -15 l624 0 0 -129 c0 -102 3 -131 15 -141 12 -10 18 -10 30 0 12
10 15 39 15 141 l0 129 228 0 c230 0 252 3 252 37 0 8 -13 16 -30 19 -25 6
-29 10 -24 30 8 32 -20 42 -152 53 -148 13 -194 42 -253 158 l-21 42 0 1103
c0 670 4 1242 12 1456 9 274 9 358 0 373 -7 10 -12 23 -12 29 0 6 88 11 238
12 229 3 237 4 237 23 0 19 -8 20 -237 23 l-238 2 0 79 c0 63 -3 80 -16 85
-20 8 -29 8 -37 -1z"/>
<path d="M4182 13559 l3 -114 -218 -3 c-120 -1 -285 2 -365 7 -81 5 -149 7
-150 6 -2 -2 -1 -16 2 -32 l6 -28 366 3 365 4 -3 -109 -3 -108 -190 2 c-104 1
-218 4 -252 7 l-61 6 10 -32 10 -33 661 3 c364 1 668 4 675 7 29 10 9 47 -64
112 -41 37 -88 74 -105 82 -27 14 -31 13 -55 -10 -14 -13 -49 -52 -77 -86
l-50 -63 -119 0 -118 0 0 110 0 110 398 2 397 3 3 21 c2 17 -19 42 -89 103
-50 45 -99 81 -109 81 -16 0 -46 -29 -138 -133 l-32 -37 -215 0 -215 0 0 43
c0 38 3 44 38 62 27 15 37 26 37 45 0 41 -51 55 -273 76 l-73 6 3 -113z"/>
<path d="M3584 13094 c4 -9 2 -43 -5 -73 -10 -51 -18 -62 -84 -126 -83 -79
-95 -99 -95 -150 0 -76 54 -125 139 -125 55 0 101 20 133 58 40 48 52 94 44
184 l-6 78 625 0 c344 0 625 -2 625 -3 0 -2 -16 -53 -35 -113 -18 -59 -33
-110 -31 -111 2 -2 49 17 105 43 83 37 116 47 179 51 98 7 112 14 112 58 0 41
-31 80 -139 172 -95 81 -107 81 -183 3 l-59 -60 -611 2 -611 3 -36 60 c-20 33
-45 61 -55 63 -15 3 -17 0 -12 -14z"/>
<path d="M4578 12824 l-63 -75 -363 3 -364 3 6 -29 c4 -16 7 -30 9 -32 1 -1
56 2 122 6 66 5 306 9 533 9 472 1 454 -3 360 87 -138 133 -152 134 -240 28z"/>
<path d="M4655 12610 l-59 -60 -267 0 c-265 0 -268 0 -317 25 -43 21 -219 75
-247 75 -6 0 -10 -89 -10 -249 0 -195 3 -252 14 -265 18 -21 140 -22 180 -1
27 13 29 13 41 -13 7 -15 15 -66 18 -114 3 -67 9 -91 23 -107 11 -11 19 -23
19 -27 0 -8 -573 3 -614 12 -28 7 -28 6 -21 -27 4 -19 8 -34 9 -34 173 0 1981
15 2021 17 l60 3 0 -250 0 -250 -110 -22 c-60 -12 -128 -22 -150 -22 l-40 -1
3 -778 c2 -513 -1 -788 -7 -805 -15 -38 -49 -48 -173 -54 -122 -7 -136 -18
-58 -46 67 -24 124 -80 141 -137 19 -69 25 -73 94 -68 96 8 152 43 293 185 69
68 126 122 127 121 1 -2 -2 -248 -6 -547 -6 -395 -6 -548 2 -558 8 -9 37 -13
94 -13 69 0 87 4 116 23 l34 23 3 582 2 582 30 15 c54 28 35 66 -53 105 -26
12 -47 23 -47 26 0 3 19 33 42 67 23 34 68 106 99 160 48 83 64 101 100 120
34 17 44 28 44 47 0 20 -11 31 -50 52 -47 26 -243 108 -257 108 -3 0 -12 -24
-18 -52 -36 -152 -186 -543 -273 -713 l-42 -80 -7 230 c-4 127 -7 358 -5 513
l2 284 115 29 c520 134 894 441 1137 934 39 78 44 85 39 50 -33 -232 -34 -518
-1 -655 31 -134 125 -310 165 -310 11 0 49 27 85 60 50 44 81 64 123 77 31 9
61 20 66 25 6 4 -18 37 -55 75 -190 198 -321 491 -336 756 -5 89 -4 104 23
183 26 77 34 90 79 126 66 53 72 64 48 97 -27 36 -178 149 -210 158 -24 6 -35
-2 -93 -65 l-65 -72 -83 0 c-45 0 -82 2 -82 4 0 1 25 55 55 119 30 63 55 120
55 126 0 6 15 17 34 25 19 8 39 24 46 35 19 36 -3 57 -87 85 -86 28 -244 69
-248 64 -1 -2 -14 -61 -28 -133 -31 -158 -83 -339 -137 -482 -22 -58 -42 -108
-44 -111 -3 -2 -37 28 -76 67 -39 40 -79 71 -90 71 -13 0 -38 -25 -72 -72
l-53 -73 -3 228 -2 229 31 29 c31 29 32 29 155 29 113 0 124 2 124 18 0 22
-151 172 -173 172 -9 0 -44 -34 -78 -76 l-62 -77 -254 5 c-264 5 -263 5 -247
-36 6 -15 22 -16 134 -10 l127 7 6 -78 c4 -43 7 -159 7 -258 l0 -180 -120 6
-120 5 -82 76 c-46 42 -93 79 -106 83 -27 6 -82 -42 -154 -134 l-40 -53 -202
0 -201 0 75 70 c41 38 99 81 128 95 66 33 69 56 10 86 -39 20 -232 89 -249 89
-4 0 -10 -28 -13 -62 -4 -35 -17 -110 -30 -168 l-22 -105 -98 -3 -99 -3 31 29
c37 34 49 88 33 142 -21 69 -99 120 -223 145 -22 4 -28 11 -28 30 l0 25 315 0
315 0 0 -24 c0 -43 24 -56 103 -56 84 0 151 26 162 60 4 13 4 64 0 115 l-7 93
31 28 c37 32 39 63 9 91 -46 42 -172 123 -193 123 -12 0 -45 -25 -80 -60z
m-25 -215 l0 -115 -315 0 -315 0 0 99 c0 91 2 100 23 114 19 14 66 16 315 16
l292 1 0 -115z m1940 -289 c0 -24 -88 -272 -135 -377 -159 -362 -416 -671
-719 -864 -55 -35 -268 -145 -280 -145 -9 0 -7 323 2 337 4 6 41 30 82 53 228
128 526 336 508 355 -4 4 -67 -9 -140 -29 -73 -20 -136 -36 -141 -36 -4 0 -6
100 -5 223 l3 222 133 3 c105 2 132 0 132 -11 0 -21 -85 -183 -129 -245 -52
-72 -39 -89 26 -36 143 116 294 302 437 537 16 27 18 27 121 27 83 0 105 -3
105 -14z"/>
<path d="M3808 11079 l5 -232 -99 7 c-55 4 -107 10 -117 12 -15 5 -17 1 -11
-23 4 -15 9 -31 11 -36 3 -4 51 -5 109 -1 l104 7 0 -215 0 -215 -87 -16 c-49
-9 -105 -19 -125 -23 l-37 -6 38 -108 c63 -179 93 -212 130 -148 11 18 34 41
51 51 l31 19 -3 -221 c-3 -192 -5 -223 -20 -237 -12 -13 -47 -20 -123 -28 -58
-5 -105 -13 -105 -18 0 -4 22 -17 49 -28 62 -27 115 -82 138 -145 l19 -50 59
0 c79 0 143 36 182 103 l28 47 -3 360 -3 360 73 53 c105 76 154 119 145 128
-4 4 -29 2 -55 -5 -26 -7 -73 -18 -104 -26 l-58 -13 0 189 0 189 92 0 91 0 -6
-119 c-7 -144 0 -161 69 -161 l44 0 0 -103 c0 -100 -18 -275 -40 -387 -52
-269 -155 -478 -282 -576 -71 -54 -40 -57 60 -4 254 132 393 351 448 709 l17
111 56 0 56 0 -3 -122 c-3 -148 -18 -318 -33 -373 -6 -21 -26 -54 -44 -72 -32
-32 -35 -33 -119 -33 -68 0 -86 -3 -86 -14 0 -8 16 -20 35 -26 43 -14 79 -60
95 -120 14 -54 35 -80 65 -80 48 0 124 32 167 70 82 72 110 179 130 503 10
177 13 194 35 220 12 16 23 35 23 42 0 19 -140 145 -170 152 -20 5 -32 -3 -76
-51 -48 -53 -55 -57 -89 -54 l-38 3 2 118 c2 119 4 134 24 175 8 16 19 22 44
22 33 0 33 0 33 -49 0 -64 14 -75 97 -74 49 0 72 5 91 20 l27 20 -3 249 -3
249 30 29 c17 17 31 37 31 47 0 30 -142 149 -178 149 -13 0 -39 -21 -68 -55
l-48 -55 -68 0 c-54 0 -75 5 -97 21 -26 19 -117 47 -202 63 l-36 6 4 -187 4
-188 -42 63 c-23 34 -48 62 -56 62 -8 0 -29 -32 -48 -72 l-34 -73 -1 146 0
147 35 26 c37 29 44 56 21 75 -15 12 -122 33 -227 45 l-55 6 4 -231z m822
-174 l0 -225 -110 0 -110 0 0 207 c0 255 -6 243 127 243 l93 0 0 -225z"/>
<path d="M4925 10463 c0 -409 4 -566 12 -574 19 -19 147 -7 173 16 l21 19 -7
487 -7 486 32 22 c43 31 39 62 -10 78 -20 6 -77 15 -125 20 l-89 8 0 -562z"/>
<path d="M6914 10370 l-77 -90 -271 1 c-149 0 -320 4 -381 9 -60 4 -112 7
-113 5 -2 -2 -1 -17 3 -33 l6 -29 135 5 134 5 0 -29 c0 -16 -9 -130 -20 -254
-11 -124 -20 -238 -20 -254 l0 -29 -146 6 -145 5 7 -32 c3 -17 7 -32 8 -33 0
0 59 3 129 9 71 5 131 7 134 4 8 -8 -65 -868 -75 -878 -5 -5 -76 -5 -158 1
-82 5 -151 7 -152 6 -2 -2 -1 -16 2 -32 l6 -28 697 3 c680 3 723 5 723 33 0
13 -138 167 -160 179 -29 16 -45 4 -102 -78 l-53 -77 -3 395 -2 395 30 28 c16
15 30 37 30 47 0 30 -180 180 -217 180 -7 0 -41 -29 -75 -65 l-62 -65 -83 0
c-46 0 -83 3 -83 8 0 4 9 113 20 242 11 129 20 243 20 252 0 9 9 20 20 23 11
3 20 13 20 21 0 12 44 14 284 14 181 0 287 4 291 10 3 6 4 19 0 29 -8 27 -184
181 -206 181 -11 0 -50 -37 -95 -90z m-164 -1175 l0 -445 -130 0 c-128 0 -130
0 -130 23 0 36 60 799 66 835 l5 32 94 0 95 0 0 -445z"/>
<path d="M8857 9574 c-3 -4 5 -31 19 -61 13 -31 24 -59 24 -64 0 -4 -35 -9
-77 -11 -61 -2 -78 -6 -78 -18 0 -12 19 -16 92 -20 l92 -5 -61 -137 -61 -137
-38 -3 c-46 -4 -52 -21 -10 -28 l30 -5 -56 -125 c-30 -69 -62 -131 -71 -137
-9 -8 -46 -13 -89 -13 l-74 0 3 88 3 87 38 3 c52 4 51 32 -2 32 -31 0 -40 4
-44 21 -6 23 -27 17 -27 -7 0 -11 -22 -14 -115 -14 l-115 0 0 186 0 187 43 -5
c23 -3 66 -15 95 -28 45 -19 52 -26 52 -50 0 -25 18 -39 53 -40 4 0 7 32 7 70
l0 70 56 0 c73 0 70 24 -4 28 -44 3 -52 6 -52 23 0 10 -7 19 -15 19 -8 0 -15
-9 -15 -20 0 -18 -7 -20 -64 -20 -106 0 -155 10 -158 32 -4 27 -22 27 -26 1
-2 -13 -4 -24 -5 -25 -1 -1 -94 -4 -207 -7 -232 -7 -276 -23 -85 -31 66 -4
115 -7 109 -8 -23 -4 -115 -96 -135 -133 -13 -26 -24 -36 -34 -33 -22 9 -26
-25 -23 -216 3 -148 5 -175 18 -175 11 0 16 13 18 49 l3 49 34 -51 c19 -28 44
-57 56 -66 21 -14 16 -15 -67 -18 -71 -2 -89 -6 -89 -18 0 -12 28 -16 165 -21
91 -3 182 -9 203 -14 35 -7 37 -9 37 -46 0 -57 28 -54 32 3 3 39 6 44 33 49
17 4 67 7 113 8 76 1 82 -1 82 -19 0 -11 7 -20 15 -20 8 0 15 9 15 20 0 15 7
20 29 20 15 0 50 3 76 7 45 6 47 5 40 -15 -4 -16 -2 -22 9 -22 8 0 18 9 21 20
6 19 15 20 261 20 l254 0 16 -40 c9 -22 23 -40 31 -40 10 0 13 6 9 16 -20 52
-19 64 7 64 17 0 28 -7 32 -20 3 -11 11 -20 17 -20 5 0 12 9 15 20 3 11 9 20
14 20 5 0 9 7 9 15 0 8 -4 15 -9 15 -5 0 -11 12 -13 28 -4 33 -32 37 -36 5 -4
-26 -14 -29 -30 -10 -9 11 -112 243 -112 252 0 2 12 5 27 7 42 5 40 26 -4 30
l-38 3 -57 125 c-31 69 -57 131 -57 137 -1 9 41 13 162 15 136 3 162 5 162 18
0 13 -27 15 -172 18 -95 1 -173 4 -173 7 0 2 9 26 19 54 18 45 18 61 1 61 -4
0 -19 -27 -33 -60 -15 -33 -29 -60 -32 -60 -2 0 -18 29 -34 64 -28 62 -43 81
-54 70z m-647 -369 l0 -184 -77 -3 c-50 -2 -78 -7 -81 -15 -3 -10 17 -13 77
-13 l81 0 0 -90 0 -90 -27 0 c-43 0 -145 53 -181 94 -52 60 -75 114 -80 192
-11 176 82 291 241 293 l47 1 0 -185z m780 49 c17 -41 34 -82 37 -90 4 -11 -9
-14 -72 -14 -69 0 -76 2 -70 17 10 28 70 163 72 163 0 0 15 -34 33 -76z m122
-286 c42 -97 54 -134 45 -140 -17 -11 -417 -10 -417 1 0 9 72 182 100 244 13
27 14 27 114 27 l101 0 57 -132z m-718 12 c24 -9 26 -15 26 -64 l0 -54 -47
-22 c-27 -13 -67 -25 -90 -28 l-43 -5 0 92 0 91 64 0 c36 0 76 -4 90 -10z m76
-155 c0 -10 -10 -15 -32 -15 l-33 1 25 14 c32 18 40 18 40 0z"/>
<path d="M13857 9574 c-3 -4 5 -31 19 -61 13 -31 24 -59 24 -64 0 -4 -35 -9
-77 -11 -61 -2 -78 -6 -78 -18 0 -12 19 -16 92 -20 l92 -5 -61 -137 -61 -137
-38 -3 c-46 -4 -52 -21 -10 -28 l30 -5 -56 -125 c-30 -69 -62 -131 -71 -137
-11 -9 -68 -13 -198 -13 -153 0 -185 3 -198 16 -13 12 -16 40 -16 140 l0 124
115 0 c108 0 115 -1 115 -20 0 -11 7 -20 15 -20 10 0 15 11 15 35 0 31 3 35
25 35 16 0 25 6 25 15 0 9 -9 15 -24 15 -18 0 -25 6 -28 23 -2 12 -7 22 -13
22 -5 0 -11 -10 -13 -22 -3 -22 -7 -23 -118 -23 l-114 0 0 84 c0 46 3 98 6
115 l7 31 109 0 c101 0 110 -2 115 -20 3 -13 14 -20 29 -20 20 0 24 5 24 29 0
25 4 30 28 33 16 2 27 9 27 18 0 9 -11 16 -27 18 -24 3 -28 8 -28 33 0 19 -5
29 -15 29 -10 0 -15 -10 -15 -30 l0 -30 -155 0 -155 0 0 30 c0 20 -5 30 -15
30 -10 0 -15 -10 -15 -30 l0 -29 -72 -3 c-57 -2 -73 -6 -73 -18 0 -11 16 -16
60 -20 33 -3 66 -9 73 -13 8 -6 12 -42 12 -121 0 -107 -1 -114 -21 -119 -23
-6 -17 -27 7 -27 11 0 14 -25 14 -144 0 -105 -3 -147 -12 -153 -7 -4 -41 -10
-76 -13 -89 -7 -83 -24 10 -28 l77 -3 3 -32 c4 -42 22 -41 26 1 l3 32 225 0
c221 0 225 0 219 -20 -4 -14 -2 -20 9 -20 8 0 18 9 21 20 6 19 15 20 261 20
l254 0 16 -40 c9 -22 23 -40 31 -40 10 0 13 6 9 16 -20 52 -19 64 7 64 17 0
28 -7 32 -20 3 -11 11 -20 17 -20 5 0 12 9 15 20 3 11 9 20 14 20 5 0 9 7 9
15 0 8 -4 15 -9 15 -5 0 -11 12 -13 28 -4 33 -32 37 -36 5 -4 -26 -14 -29 -30
-10 -9 11 -112 243 -112 252 0 2 12 5 27 7 42 5 40 26 -4 30 l-38 3 -57 125
c-31 69 -57 131 -57 137 -1 9 41 13 162 15 136 3 162 5 162 18 0 13 -27 15
-172 18 -95 1 -173 4 -173 7 0 2 9 26 19 54 18 45 18 61 1 61 -4 0 -19 -27
-33 -60 -15 -33 -29 -60 -32 -60 -2 0 -18 29 -34 64 -28 62 -43 81 -54 70z
m133 -320 c17 -41 34 -82 37 -90 4 -11 -9 -14 -72 -14 -69 0 -76 2 -70 17 10
28 70 163 72 163 0 0 15 -34 33 -76z m122 -286 c42 -97 54 -134 45 -140 -17
-11 -417 -10 -417 1 0 9 72 182 100 244 13 27 14 27 114 27 l101 0 57 -132z"/>
<path d="M14747 9534 c-4 -4 -7 -27 -7 -50 l0 -44 -182 -2 c-155 -3 -183 -5
-183 -18 0 -12 20 -16 108 -18 l108 -3 -43 -32 c-23 -18 -57 -52 -75 -76 l-33
-43 0 36 c0 25 -4 36 -15 36 -12 0 -15 -18 -15 -100 0 -82 -3 -100 -15 -100
-19 0 -20 -26 0 -37 11 -6 15 -33 17 -106 3 -101 19 -135 28 -59 l5 43 13 -31
c8 -16 34 -50 59 -75 l45 -45 -96 0 c-79 0 -96 -3 -96 -15 0 -13 21 -15 128
-15 155 0 238 -14 245 -41 6 -24 27 -25 34 -1 7 28 128 42 354 42 188 0 197
-1 202 -20 3 -11 10 -20 16 -20 6 0 11 9 11 20 0 19 7 20 160 20 131 0 160 3
160 14 0 11 -25 15 -120 18 -65 1 -124 8 -129 13 -14 14 -26 349 -17 458 l8
87 80 0 c70 0 80 -2 85 -19 5 -19 36 -34 47 -23 3 3 6 20 6 39 0 26 4 33 20
33 11 0 20 7 20 15 0 8 -9 15 -19 15 -12 0 -21 8 -23 22 -4 27 -28 36 -28 10
0 -25 -34 -32 -156 -32 l-93 0 -3 33 c-2 17 -7 32 -13 32 -5 0 -11 -15 -13
-32 l-3 -33 -58 0 c-78 0 -121 9 -121 26 0 8 -7 14 -15 14 -9 0 -15 -9 -15
-21 0 -15 -4 -19 -16 -15 -9 3 -24 6 -35 6 -12 0 -19 7 -19 20 0 27 -20 26
-27 -1 -6 -20 -10 -21 -81 -15 -41 3 -94 6 -118 6 l-43 0 -3 42 c-3 39 -16 57
-31 42z m373 -179 c0 -56 15 -66 34 -21 l14 34 81 4 81 3 0 -276 0 -276 -31
-7 c-17 -3 -92 -6 -166 -6 -124 0 -133 1 -118 16 25 25 4 37 -36 20 -47 -20
-156 -38 -179 -31 -19 6 -20 16 -20 136 l0 129 79 0 c53 0 82 4 90 13 18 22 2
27 -86 27 l-83 0 0 140 c0 159 -10 147 100 130 93 -15 101 -19 111 -50 10 -26
41 -45 53 -32 3 3 6 25 6 48 0 39 2 43 28 46 39 5 42 2 42 -47z m-380 -95 l0
-140 -125 0 -125 0 0 34 c0 110 88 213 201 235 24 5 45 9 47 10 1 1 2 -62 2
-139z m0 -309 l0 -130 -28 8 c-54 16 -131 61 -151 90 -25 35 -71 131 -71 149
0 9 32 12 125 12 l125 0 0 -129z"/>
<path d="M10050 9513 c1 -10 7 -29 15 -43 8 -14 14 -28 15 -32 0 -4 -33 -5
-72 -4 -40 2 -105 4 -144 5 -64 1 -72 3 -77 22 -6 23 -27 17 -27 -7 0 -11 -15
-14 -62 -14 -68 0 -81 5 -91 33 -9 24 -31 17 -35 -11 -3 -19 -10 -22 -57 -22
-51 0 -54 1 -57 27 -4 39 -28 42 -28 4 0 -29 -3 -31 -35 -31 -45 0 -47 -24 -2
-36 l32 -10 3 -287 2 -286 -32 -9 c-46 -12 -48 -32 -4 -32 35 0 36 -1 36 -41
0 -52 24 -48 28 4 l3 37 201 0 202 0 27 -32 c30 -37 49 -32 31 7 -10 22 -9 25
8 25 25 0 26 19 3 26 -69 22 -67 20 -252 256 l-52 67 33 14 c18 8 47 28 65 44
30 29 32 29 35 9 6 -41 23 -16 26 38 2 45 6 55 23 59 23 6 17 27 -7 27 -10 0
-14 12 -14 44 l0 45 86 3 c47 2 88 0 91 -4 2 -5 15 -8 29 -8 14 0 34 -5 45
-10 25 -14 25 -65 -1 -308 -28 -262 -27 -258 -56 -270 -29 -14 -31 -32 -4 -39
16 -4 20 -14 20 -45 0 -49 23 -47 30 3 l5 34 152 3 152 3 -14 -35 c-18 -43
-19 -56 -2 -56 7 0 19 17 27 38 13 35 14 36 20 13 9 -40 30 -38 30 3 0 47 15
46 40 -4 33 -65 51 -46 24 24 -5 14 8 16 115 16 l121 0 0 -26 c0 -31 23 -28
28 4 2 14 12 22 30 24 35 4 35 29 0 46 l-28 13 0 284 0 284 27 3 c37 4 40 25
4 33 -19 4 -31 13 -33 26 -4 28 -22 24 -26 -6 -2 -14 -8 -25 -13 -25 -6 0 -9
10 -7 22 4 31 -16 33 -30 3 l-12 -25 -262 2 -263 3 0 44 c0 27 -5 46 -12 48
-7 3 -13 -1 -13 -8 0 -10 -3 -10 -12 -1 -17 17 -28 15 -28 -5z m-290 -113 c0
-5 -2 -10 -4 -10 -3 0 -8 5 -11 10 -3 6 -1 10 4 10 6 0 11 -4 11 -10z m860 -7
c0 -5 -48 -115 -107 -245 l-108 -237 -3 80 c-2 61 -6 79 -17 79 -12 0 -15 -15
-16 -67 l0 -68 -101 200 c-55 110 -107 215 -115 233 l-13 32 240 0 c132 0 240
-3 240 -7z m-1050 -38 c0 -24 -5 -35 -15 -35 -25 0 -17 -24 12 -38 18 -8 30
-9 37 -2 5 5 29 10 53 10 39 0 43 -2 43 -24 0 -27 -48 -81 -81 -91 -16 -5 -28
1 -48 26 -29 34 -51 27 -32 -10 8 -15 7 -20 -5 -25 -24 -9 -15 -82 9 -79 12 0
36 -21 65 -60 26 -34 75 -97 110 -140 l63 -79 -125 3 c-68 2 -128 8 -133 12
-4 5 -9 132 -11 282 -3 256 -2 274 15 278 38 10 43 7 43 -28z m103 3 c39 -27
34 -38 -18 -38 -45 0 -45 0 -45 35 0 38 10 39 63 3z m971 -535 c-22 -16 -214
-18 -214 -2 0 6 34 85 76 177 42 92 90 198 108 237 l31 70 8 -235 c8 -218 7
-235 -9 -247z m-410 219 l117 -234 -125 4 c-80 2 -129 7 -137 15 -10 10 -9 48
0 175 14 188 23 280 26 276 2 -2 55 -108 119 -236z"/>
<path d="M10886 9523 c-3 -3 -6 -23 -6 -44 0 -36 -1 -38 -37 -41 -45 -4 -54
-23 -16 -33 54 -13 53 -7 53 -311 l0 -284 -34 0 c-38 0 -57 -17 -35 -31 8 -5
26 -9 41 -9 21 0 27 -5 30 -25 4 -33 22 -33 26 0 l3 25 174 0 174 0 3 -27 c4
-36 22 -36 26 -2 3 28 23 39 74 39 20 0 27 -6 30 -22 5 -32 28 -35 28 -4 0 22
4 26 30 26 27 0 30 -3 30 -30 0 -20 5 -30 15 -30 10 0 15 10 15 30 l0 30 214
0 215 0 3 -42 c4 -58 28 -63 28 -6 l0 43 26 -32 c14 -18 32 -33 40 -33 19 0
18 7 -7 41 l-20 29 36 0 c46 0 43 24 -3 28 -24 2 -33 9 -38 27 -3 13 -4 141
-2 284 2 191 6 263 16 273 9 9 12 6 12 -19 0 -33 16 -51 31 -36 14 14 15 111
0 125 -10 11 -15 10 -25 -4 -7 -10 -25 -18 -39 -18 -22 0 -26 5 -29 33 -2 17
-7 32 -13 32 -5 0 -11 -15 -13 -32 l-3 -33 -215 0 c-184 0 -214 2 -214 15 0 8
-7 15 -15 15 -8 0 -15 -7 -15 -15 0 -23 -49 -18 -69 7 -19 23 -44 17 -34 -7 4
-12 -8 -15 -71 -15 l-76 0 0 35 c0 24 -5 35 -15 35 -10 0 -15 -11 -15 -35 l0
-35 -145 0 -145 0 0 39 c0 38 -10 57 -24 44z m519 -127 c21 -9 37 -24 40 -38
9 -34 1 -525 -8 -534 -4 -4 -14 1 -22 12 -14 19 -15 19 -21 -3 -4 -14 -15 -22
-37 -25 -63 -7 -67 -3 -67 68 0 50 -3 64 -15 64 -8 0 -15 -9 -15 -19 0 -11 -4
-23 -10 -26 -5 -3 -10 -15 -10 -25 0 -32 -33 -40 -159 -40 l-121 0 0 135 0
135 109 0 c82 0 111 3 121 14 6 8 28 16 48 18 25 2 37 8 37 18 0 13 -25 15
-158 18 l-158 3 3 102 3 102 100 3 c93 3 100 1 117 -20 10 -13 18 -33 18 -45
0 -14 6 -23 15 -23 12 0 15 13 15 60 l0 60 70 0 c39 0 86 -6 105 -14z m502 2
l33 -12 0 -228 c0 -125 -2 -228 -3 -228 -12 0 -417 462 -417 475 0 11 355 5
387 -7z m-161 -368 l187 -215 -176 -3 c-98 -1 -192 1 -210 6 l-32 8 -3 235 -2
234 24 -25 c13 -14 108 -122 212 -240z"/>
<path d="M17706 9469 l-27 -41 -260 3 -259 3 0 24 c0 30 -24 24 -28 -7 -3 -15
-8 -21 -19 -17 -8 3 -47 6 -88 6 -65 0 -73 2 -78 21 -6 23 -27 17 -27 -7 0
-11 -15 -14 -62 -14 -68 0 -81 5 -91 33 -9 24 -31 17 -35 -11 -3 -19 -10 -22
-57 -22 -51 0 -54 1 -57 27 -4 39 -28 42 -28 4 0 -29 -3 -31 -35 -31 -45 0
-47 -24 -2 -36 l32 -10 3 -287 2 -286 -32 -9 c-46 -12 -48 -32 -4 -32 35 0 36
-1 36 -41 0 -52 24 -48 28 4 l3 37 201 0 202 0 27 -32 c30 -37 49 -32 31 7
l-12 25 200 0 200 0 0 -34 c0 -19 4 -37 9 -40 11 -7 21 17 21 50 l0 24 163 2
c209 4 217 21 12 28 -82 3 -156 9 -162 13 -9 6 -13 40 -13 112 l0 103 91 139
c131 198 153 223 194 223 35 0 54 14 35 25 -6 4 -30 7 -55 8 l-44 2 20 31 c17
28 17 44 -1 44 -4 0 -19 -18 -34 -41z m-786 -69 c0 -5 -2 -10 -4 -10 -3 0 -8
5 -11 10 -3 6 -1 10 4 10 6 0 11 -4 11 -10z m210 -29 c6 -41 30 -55 30 -17 0
60 80 10 149 -93 21 -31 57 -91 80 -133 l43 -78 -23 -40 c-23 -41 -21 -62 6
-40 13 11 15 3 15 -63 0 -64 -3 -78 -18 -86 -31 -16 -334 -16 -365 0 -23 13
-88 89 -214 251 l-44 57 33 14 c18 8 47 28 65 44 29 27 32 28 35 11 6 -40 23
-16 26 37 2 39 7 55 17 55 23 0 28 21 6 27 -17 4 -21 13 -21 50 l0 44 88 -3
87 -3 5 -34z m514 2 c-9 -16 -46 -70 -80 -122 -61 -92 -63 -93 -66 -61 -5 58
-28 49 -28 -12 l0 -53 -58 101 c-32 55 -71 117 -86 137 l-28 37 182 0 182 0
-18 -27z m-914 -18 c0 -24 -5 -35 -15 -35 -25 0 -17 -24 12 -38 18 -8 30 -9
37 -2 5 5 29 10 53 10 39 0 43 -2 43 -24 0 -27 -48 -81 -81 -91 -16 -5 -28 1
-48 26 -29 34 -51 27 -32 -10 8 -15 7 -20 -5 -25 -24 -9 -15 -82 9 -79 12 0
36 -21 65 -60 26 -34 75 -97 110 -140 l63 -79 -125 3 c-68 2 -128 8 -133 12
-4 5 -9 132 -11 282 -3 256 -2 274 15 278 38 10 43 7 43 -28z m103 3 c39 -27
34 -38 -18 -38 -45 0 -45 0 -45 35 0 38 10 39 63 3z"/>
<path d="M12336 9493 c-3 -3 -6 -19 -6 -35 0 -28 -1 -28 -59 -28 -78 0 -121 9
-121 26 0 24 -30 15 -32 -8 -3 -48 4 -133 12 -142 5 -5 15 7 23 27 l15 35 81
4 81 3 0 -276 0 -276 -31 -7 c-17 -3 -67 -6 -110 -6 -64 0 -79 -3 -79 -15 0
-12 19 -15 109 -15 100 0 109 -2 114 -20 3 -11 10 -20 16 -20 6 0 11 9 11 20
0 19 7 20 160 20 131 0 160 3 160 14 0 11 -25 15 -120 18 -65 1 -124 8 -129
13 -14 14 -26 349 -17 458 l8 87 80 0 c70 0 80 -2 85 -19 5 -19 36 -34 47 -23
3 3 6 20 6 39 0 26 4 33 20 33 11 0 20 7 20 15 0 8 -9 15 -19 15 -12 0 -21 8
-23 22 -4 27 -28 36 -28 10 0 -25 -34 -32 -156 -32 l-94 0 0 29 c0 30 -12 46
-24 34z"/>
<path d="M16110 9475 c0 -20 -6 -25 -37 -30 -21 -4 -47 -9 -58 -12 -19 -5 -19
-5 -2 15 29 32 0 39 -32 8 -24 -23 -35 -26 -103 -26 -72 0 -77 1 -80 23 -2 12
-10 22 -18 22 -8 0 -16 -10 -18 -22 -3 -19 -10 -23 -39 -23 -44 0 -40 -24 5
-28 l32 -3 0 -78 c0 -73 -2 -79 -30 -106 -35 -33 -25 -62 10 -30 20 18 20 18
20 -17 0 -28 -5 -37 -21 -41 -22 -6 -17 -27 6 -27 11 0 15 -25 17 -122 3 -101
6 -123 18 -123 10 0 17 14 20 45 l5 45 13 -31 c7 -17 29 -47 48 -65 l35 -34
-103 -5 c-61 -3 -102 -9 -101 -15 2 -6 66 -13 150 -17 215 -9 260 -16 266 -40
7 -24 27 -15 27 13 0 13 7 19 21 19 18 0 19 -3 9 -15 -6 -8 -9 -19 -5 -25 4
-7 21 1 45 20 38 30 38 30 170 30 101 0 131 3 128 13 -3 8 -39 14 -111 17
l-107 5 62 50 c34 28 71 50 82 50 19 0 21 7 24 92 3 86 4 92 25 95 29 4 29 22
0 26 -21 3 -22 8 -25 109 -2 77 -7 108 -16 111 -7 2 -16 -6 -19 -18 -6 -21 -6
-21 -23 5 -9 14 -28 34 -41 43 -23 17 -22 17 60 22 55 3 86 9 89 18 3 9 -24
12 -113 12 -64 0 -147 5 -186 11 -63 11 -69 14 -69 35 0 15 -6 24 -15 24 -9 0
-15 -9 -15 -25z m-195 -83 c-6 -5 -34 -30 -62 -57 l-53 -48 0 57 0 56 62 0
c34 0 58 -4 53 -8z m195 -127 l0 -135 -136 0 -136 0 7 43 c21 129 119 222 238
226 l27 1 0 -135z m147 99 c70 -41 122 -125 123 -201 l0 -33 -120 0 -120 0 0
136 0 136 38 -7 c20 -3 56 -18 79 -31z m-147 -410 l0 -147 -42 7 c-48 8 -112
42 -145 78 -27 29 -69 121 -77 171 l-7 37 136 0 135 0 0 -146z m270 118 c0
-46 -28 -126 -59 -169 -36 -49 -84 -80 -139 -89 l-42 -7 0 147 0 146 120 0
120 0 0 -28z"/>
<path d="M14370 8974 c0 -8 5 -12 10 -9 6 3 10 10 10 16 0 5 -4 9 -10 9 -5 0
-10 -7 -10 -16z"/>
</g>
</svg>
